<svg width="146" height="38" viewBox="0 0 146 38" fill="none" xmlns="http://www.w3.org/2000/svg">
<path d="M45.5419 27.0465C45.3559 27.0465 45.209 26.9877 45.1111 26.8702C45.0279 26.7527 45.0034 26.6009 45.0328 26.41L46.1784 20.9363L42.5897 10.038C42.5211 9.83235 42.5554 9.6463 42.6925 9.47984C42.8296 9.30848 43.0058 9.22525 43.2262 9.22525H46.2029C46.4771 9.22525 46.6631 9.29379 46.761 9.43088C46.8785 9.54838 46.9569 9.66099 46.9911 9.7638L49.2335 16.3048L54.2469 9.7638C54.3155 9.66099 54.433 9.55328 54.6043 9.43088C54.7757 9.29379 54.9862 9.22525 55.2408 9.22525H58.6777C58.9323 9.22525 59.0792 9.31827 59.1086 9.50432C59.1575 9.69036 59.1184 9.87151 58.9813 10.038L50.7561 20.9363L49.586 26.41C49.5517 26.596 49.4587 26.7478 49.3069 26.8702C49.1698 26.9877 49.0083 27.0465 48.8222 27.0465H45.537H45.5419ZM63.0743 27.301C61.9727 27.301 61.0572 27.1835 60.3228 26.9436C59.608 26.689 59.0498 26.3855 58.6435 26.0281C58.2371 25.6707 57.958 25.3084 57.8014 24.9314C57.6496 24.5397 57.5957 24.2117 57.6496 23.9375C57.6839 23.7515 57.7671 23.5997 57.9042 23.4773C58.0559 23.3402 58.2077 23.2717 58.3644 23.2717H61.2677C61.3166 23.2717 61.3607 23.2815 61.395 23.2962C61.4439 23.3109 61.488 23.3451 61.5223 23.399C61.7083 23.5165 61.8944 23.6683 62.0804 23.8592C62.2665 24.0306 62.4868 24.1823 62.7414 24.3194C63.0155 24.4565 63.3533 24.525 63.7597 24.525C64.2346 24.525 64.6606 24.432 65.0327 24.246C65.4047 24.0599 65.6251 23.7809 65.6936 23.4039C65.7621 23.1346 65.7279 22.9094 65.5908 22.7429C65.4733 22.5569 65.1991 22.3757 64.7781 22.2093C64.3521 22.0379 63.6912 21.8714 62.7903 21.7001C61.9433 21.4945 61.2187 21.235 60.6263 20.9118C60.0486 20.574 59.6422 20.1383 59.4023 19.6144C59.1624 19.071 59.1233 18.4198 59.275 17.656C59.4268 16.9755 59.7842 16.3244 60.3423 15.6977C60.9005 15.071 61.6496 14.5618 62.5847 14.1701C63.5345 13.7638 64.6312 13.5582 65.8699 13.5582C66.8539 13.5582 67.6862 13.6757 68.3668 13.9156C69.0473 14.1359 69.5957 14.4247 70.0216 14.7821C70.4476 15.1395 70.7413 15.5018 70.9127 15.8788C71.084 16.2558 71.1428 16.5936 71.0889 16.8972C71.0742 17.0685 70.9861 17.2203 70.8343 17.3574C70.6972 17.4749 70.5553 17.5337 70.4035 17.5337H67.7548C67.6862 17.5337 67.6177 17.5239 67.5492 17.5092C67.5002 17.4749 67.4561 17.4406 67.4219 17.4064C67.2162 17.3035 67.0302 17.1665 66.8637 17C66.6924 16.8286 66.4916 16.6769 66.2517 16.5398C66.0118 16.4027 65.6936 16.3341 65.2823 16.3341C64.8221 16.3341 64.4402 16.437 64.1367 16.6377C63.8478 16.8433 63.6716 17.1028 63.603 17.4259C63.5541 17.6463 63.5786 17.8519 63.6814 18.0379C63.7842 18.224 64.0388 18.3953 64.4451 18.5471C64.8711 18.6989 65.5418 18.8702 66.4574 19.0563C67.5785 19.2423 68.4353 19.5508 69.0277 19.9718C69.6397 20.3782 70.0363 20.8629 70.2223 21.421C70.4084 21.9645 70.4427 22.5422 70.3252 23.1542C70.1538 23.9669 69.7572 24.6915 69.1305 25.3182C68.5039 25.9449 67.6716 26.4394 66.6336 26.7968C65.6153 27.1346 64.4256 27.3059 63.0694 27.3059L63.0743 27.301ZM79.6666 31.8836C79.4952 31.8836 79.3631 31.8249 79.2602 31.7074C79.177 31.5899 79.1476 31.4381 79.1819 31.2472L80.3765 25.5973C79.8673 26.1407 79.3092 26.5667 78.6972 26.8702C78.1048 27.1591 77.3802 27.301 76.5332 27.301C75.6862 27.301 74.9714 27.164 74.3447 26.8947C73.7327 26.6058 73.2333 26.2092 72.8417 25.7001C72.4696 25.1909 72.215 24.5691 72.0779 23.8396C71.9604 23.1101 71.9751 22.2876 72.1269 21.3721C72.1954 21.0342 72.2542 20.7209 72.3031 20.432C72.3717 20.1432 72.4451 19.8298 72.5332 19.492C72.8564 18.2338 73.3117 17.1665 73.909 16.2852C74.5014 15.4039 75.226 14.7332 76.073 14.273C76.92 13.7981 77.9041 13.5582 79.0252 13.5582C79.9604 13.5582 80.7486 13.7344 81.3949 14.0918C82.0411 14.4296 82.4964 14.8654 82.7706 15.3892L82.9762 14.4492C83.0105 14.2632 83.1035 14.1114 83.2553 13.989C83.4071 13.8715 83.5784 13.8127 83.7645 13.8127H86.6139C86.8 13.8127 86.9371 13.8715 87.0203 13.989C87.1231 14.1065 87.1574 14.2583 87.1231 14.4492L83.5589 31.2521C83.5246 31.4381 83.4316 31.5899 83.2798 31.7123C83.128 31.8298 82.9567 31.8885 82.7706 31.8885H79.6666V31.8836ZM78.2908 23.8886C78.8343 23.8886 79.2994 23.776 79.6911 23.5557C80.0974 23.3158 80.4304 23.022 80.685 22.6646C80.9542 22.2925 81.1452 21.891 81.2431 21.47C81.3263 21.1322 81.4047 20.809 81.4732 20.5006C81.5417 20.197 81.6005 19.8788 81.6495 19.5606C81.7327 19.1004 81.7327 18.6793 81.6495 18.2876C81.5809 17.896 81.4095 17.5826 81.1403 17.3476C80.871 17.093 80.4548 16.9657 79.8918 16.9657C79.3288 16.9657 78.8833 17.0832 78.4916 17.3231C78.1195 17.563 77.811 17.8813 77.576 18.2925C77.341 18.7038 77.1452 19.1493 76.9885 19.6438C76.92 19.8984 76.8514 20.1628 76.7829 20.432C76.7339 20.7013 76.6899 20.9657 76.6556 21.2203C76.5871 21.7148 76.5724 22.1603 76.6066 22.5716C76.6556 22.9779 76.8123 23.3011 77.0669 23.541C77.3214 23.7809 77.7278 23.8984 78.2908 23.8984V23.8886ZM92.5184 27.301C91.5001 27.301 90.6335 27.0807 89.9236 26.6401C89.2284 26.1995 88.7437 25.5532 88.4744 24.7062C88.2198 23.8396 88.2296 22.787 88.4989 21.5483L89.9774 14.4443C90.0117 14.2583 90.1047 14.1065 90.2565 13.9841C90.4083 13.8666 90.5796 13.8078 90.7657 13.8078H93.9725C94.1439 13.8078 94.2712 13.8666 94.3544 13.9841C94.4572 14.1016 94.4915 14.2534 94.4572 14.4443L92.9786 21.3965C92.8611 21.94 92.8269 22.4002 92.8758 22.7723C92.9444 23.1444 93.1059 23.4235 93.3605 23.6144C93.6347 23.8004 94.0313 23.8935 94.5551 23.8935C95.2846 23.8935 95.9113 23.6829 96.4401 23.257C96.9835 22.8164 97.3409 22.1946 97.5074 21.3965L98.986 14.4443C99.0202 14.2583 99.1133 14.1065 99.265 13.9841C99.4168 13.8666 99.5784 13.8078 99.7497 13.8078H102.932C103.118 13.8078 103.255 13.8666 103.338 13.9841C103.441 14.1016 103.476 14.2534 103.441 14.4443L100.895 26.41C100.861 26.596 100.768 26.7478 100.616 26.8702C100.479 26.9877 100.318 27.0465 100.132 27.0465H97.2038C97.0178 27.0465 96.8709 26.9877 96.773 26.8702C96.6702 26.7527 96.6359 26.6009 96.6702 26.41L96.8758 25.4406C96.5184 25.8323 96.1365 26.1701 95.7302 26.4589C95.3238 26.7282 94.8636 26.9338 94.3544 27.0709C93.8452 27.2227 93.2332 27.301 92.5233 27.301H92.5184ZM108.802 27.301C107.99 27.301 107.265 27.1737 106.638 26.9192C106.026 26.6499 105.537 26.2582 105.16 25.749C104.788 25.2252 104.538 24.5936 104.42 23.8641C104.303 23.115 104.318 22.268 104.469 21.3182C104.538 20.9804 104.597 20.6817 104.646 20.4271C104.695 20.1579 104.763 19.8592 104.851 19.5361C105.072 18.6205 105.375 17.798 105.767 17.0685C106.158 16.339 106.624 15.7124 107.167 15.1836C107.711 14.6597 108.337 14.2583 109.052 13.989C109.781 13.7001 110.58 13.5582 111.446 13.5582C112.479 13.5582 113.262 13.7099 113.786 14.0184C114.33 14.3072 114.761 14.6695 115.084 15.1151L115.211 14.4541C115.245 14.2681 115.329 14.1163 115.466 13.9939C115.617 13.8764 115.789 13.8176 115.975 13.8176H118.824C118.996 13.8176 119.128 13.8764 119.231 13.9939C119.333 14.1114 119.368 14.2632 119.333 14.4541L116.812 26.4198C116.778 26.6058 116.685 26.7576 116.533 26.88C116.381 27.0024 116.22 27.0562 116.048 27.0562H113.169C112.998 27.0562 112.866 26.9975 112.763 26.88C112.66 26.7625 112.626 26.6107 112.66 26.4198L112.837 25.607C112.313 26.1015 111.74 26.5079 111.133 26.831C110.54 27.1542 109.757 27.3157 108.793 27.3157L108.802 27.301ZM110.56 23.8886C111.138 23.8886 111.622 23.7711 112.009 23.5312C112.401 23.2766 112.724 22.9535 112.979 22.5618C113.233 22.1701 113.409 21.7491 113.512 21.2888C113.615 20.951 113.688 20.6279 113.742 20.3194C113.811 20.0159 113.87 19.6977 113.919 19.3794C114.002 18.9535 114.002 18.5667 113.919 18.2093C113.85 17.8372 113.674 17.5385 113.385 17.3182C113.111 17.0783 112.704 16.9608 112.161 16.9608C111.617 16.9608 111.187 17.0783 110.81 17.3182C110.438 17.5581 110.129 17.8764 109.894 18.2876C109.674 18.694 109.488 19.1444 109.336 19.6389C109.267 19.8935 109.199 20.1579 109.13 20.4271C109.062 20.6964 109.013 20.9608 108.979 21.2154C108.91 21.7099 108.895 22.1554 108.93 22.5667C108.979 22.973 109.135 23.2962 109.39 23.5361C109.644 23.776 110.036 23.8935 110.56 23.8935V23.8886ZM120.337 27.0465C120.151 27.0465 120.004 26.9877 119.906 26.8702C119.803 26.7527 119.769 26.6009 119.803 26.41L122.349 14.4443C122.384 14.273 122.477 14.131 122.628 14.0135C122.78 13.8764 122.952 13.8078 123.138 13.8078H126.065C126.251 13.8078 126.388 13.8764 126.472 14.0135C126.575 14.131 126.609 14.2779 126.575 14.4443L126.369 15.4627C126.775 14.9535 127.284 14.5569 127.896 14.2681C128.508 13.9645 129.262 13.8078 130.163 13.8078H131.612C131.784 13.8078 131.911 13.8666 131.994 13.9841C132.097 14.1016 132.131 14.2534 132.097 14.4443L131.563 17.0685C131.529 17.2399 131.436 17.3917 131.284 17.5288C131.133 17.6463 130.961 17.705 130.775 17.705H128.308C127.612 17.705 127.035 17.9008 126.575 18.2925C126.114 18.6646 125.811 19.1983 125.659 19.8984L124.259 26.4149C124.224 26.6009 124.131 26.7527 123.98 26.8751C123.843 26.9926 123.681 27.0513 123.495 27.0513H120.337V27.0465ZM137.703 27.301C136.381 27.301 135.27 27.0611 134.369 26.5862C133.488 26.0917 132.876 25.3622 132.538 24.3978C132.215 23.4284 132.18 22.2435 132.435 20.8335C132.469 20.716 132.504 20.5642 132.538 20.3733C132.572 20.1872 132.606 20.0404 132.641 19.9425C132.978 18.601 133.522 17.4553 134.271 16.5055C135.02 15.5361 135.936 14.8066 137.022 14.317C138.109 13.8078 139.304 13.5533 140.611 13.5533C142.104 13.5533 143.27 13.8519 144.097 14.4443C144.944 15.0367 145.507 15.8446 145.776 16.8629C146.065 17.8813 146.075 19.0416 145.801 20.3488L145.698 20.9608C145.664 21.1469 145.561 21.2986 145.395 21.421C145.243 21.5385 145.071 21.5973 144.885 21.5973H136.763C136.763 21.5973 136.753 21.6413 136.739 21.6756C136.739 21.7099 136.729 21.7442 136.714 21.7784C136.631 22.2729 136.621 22.7184 136.69 23.1297C136.758 23.5361 136.929 23.8592 137.199 24.0991C137.473 24.339 137.835 24.4565 138.295 24.4565C138.619 24.4565 138.907 24.4075 139.162 24.3047C139.417 24.1872 139.637 24.0599 139.823 23.9228C140.009 23.7711 140.161 23.6438 140.283 23.541C140.469 23.3696 140.616 23.2717 140.714 23.2374C140.817 23.1885 140.969 23.1591 141.174 23.1591H144.332C144.503 23.1591 144.631 23.208 144.714 23.3109C144.797 23.3941 144.817 23.5214 144.763 23.6927C144.68 23.9816 144.459 24.3292 144.102 24.7356C143.764 25.1419 143.289 25.5483 142.677 25.9596C142.065 26.3512 141.346 26.6744 140.513 26.929C139.681 27.1835 138.746 27.3108 137.713 27.3108L137.703 27.301ZM137.297 19.0759H141.6L141.625 19.0269C141.762 18.4835 141.776 18.0086 141.674 17.6022C141.59 17.1958 141.404 16.8825 141.115 16.6622C140.846 16.4419 140.479 16.3293 140.019 16.3293C139.559 16.3293 139.142 16.4419 138.77 16.6622C138.413 16.8825 138.109 17.1958 137.855 17.6022C137.615 18.0086 137.429 18.4835 137.297 19.0269V19.0759Z" fill="#5B656D"/>
<path d="M31.2605 0.250977H5.87512C2.63038 0.250977 0 2.88136 0 6.1261V31.9424C0 35.1871 2.63038 37.8175 5.87512 37.8175H31.2605C34.5053 37.8175 37.1357 35.1871 37.1357 31.9424V6.1261C37.1357 2.88136 34.5053 0.250977 31.2605 0.250977Z" fill="url(#paint0_linear_185_146)"/>
<path d="M37.1356 6.05761V29.5973C37.1356 32.8433 34.5065 35.4724 31.2605 35.4724H21.7428C21.5861 34.5373 20.6999 27.8886 24.7832 19.1395C28.3523 11.4872 34.247 5.23509 36.3571 3.13474C36.8565 3.99642 37.1356 4.99519 37.1356 6.05761Z" fill="#1476D6"/>
<path d="M5.19459 10.7332C5.19459 10.7332 10.4577 18.8066 11.9706 23.8935C13.3708 28.5887 12.9889 34.5813 12.9204 35.4724H5.87512C2.62912 35.4724 0 32.8432 0 29.5972V6.05759C0 2.81158 2.62912 0.182465 5.87512 0.182465H31.2605C31.3976 0.182465 31.5298 0.187361 31.6669 0.197152C29.3756 2.70877 25.5127 6.98292 23.1822 9.82746C19.7061 14.0722 16.8812 20.4076 16.8812 20.4076C16.8812 20.4076 15.4614 16.9412 12.2986 13.3868C9.13581 9.82745 5.19459 10.7332 5.19459 10.7332Z" fill="#1476D6"/>
<path fill-rule="evenodd" clip-rule="evenodd" d="M24.7832 19.1395C20.7 27.8885 21.5862 34.5372 21.7428 35.4723H12.9204C12.9889 34.5813 13.3708 28.5887 11.9706 23.8935C10.4577 18.8066 5.19458 10.7332 5.19458 10.7332C5.19458 10.7332 9.13581 9.82744 12.2986 13.3868C15.4614 16.9412 16.8812 20.4076 16.8812 20.4076C16.8812 20.4076 19.7061 14.0722 23.1822 9.82745C25.5127 6.98291 29.3756 2.70876 31.6669 0.197144C33.6791 0.33423 35.4123 1.47988 36.3572 3.1347C34.2471 5.23506 28.3523 11.4872 24.7832 19.1395Z" fill="white"/>
<path d="M31.6669 0.197144C31.6669 0.197144 26.771 5.4309 22.7906 10.7136C18.8102 15.9914 16.5531 22.7429 16.5531 22.7429C16.5531 22.7429 14.35 16.0893 11.3977 13.2056C8.44548 10.3219 5.19458 10.7381 5.19458 10.7381C5.19458 10.7381 7.63276 7.9621 10.9718 9.01472C14.3059 10.0673 16.323 15.1787 16.323 15.1787C16.323 15.1787 19.3585 8.78461 23.5299 5.36725C27.6963 1.94499 31.6669 0.197144 31.6669 0.197144Z" fill="#BBC2C6"/>
<defs>
<linearGradient id="paint0_linear_185_146" x1="64.3913" y1="39.5947" x2="26.6143" y2="22.645" gradientUnits="userSpaceOnUse">
<stop offset="0.51" stop-color="#78838B"/>
<stop offset="0.79" stop-color="#A7B1B7"/>
<stop offset="0.88" stop-color="#D8DDE0"/>
</linearGradient>
</defs>
</svg>
